<?xml version="1.0" encoding="utf-8"?>
<!-- Generator: Adobe Illustrator 27.9.0, SVG Export Plug-In . SVG Version: 6.00 Build 0)  -->
<svg version="1.1" id="type" xmlns="http://www.w3.org/2000/svg" xmlns:xlink="http://www.w3.org/1999/xlink" x="0px" y="0px"
	 viewBox="0 0 538 196" style="enable-background:new 0 0 538 196;" xml:space="preserve">
<style type="text/css">
	.st0{fill:#FFFFFF;}
</style>
<g>
	<path class="st0" d="M517.9,147L517.9,147c-1.4-0.8-3.2,0-3.8,1.3c-4.2,7.5-9.1,12.3-15.2,15.3c-0.4,0.2-0.7,0.1-0.9-0.1
		c-0.3-0.3-0.3-0.7-0.1-1.2l14.9-29.8c0.4-0.8,0.4-0.8,0.5-1.2l0-0.2c0.1-0.8-0.1-1.5-0.6-2.1c-1.1-1.2-3.2-0.9-4.3,0.6h0l-0.3,0.5
		c-0.4,0.6-1.3,2.5-2.8,5.6l-0.1,0.2c-2.2,4.5-5.2,10.6-8.3,16.7c-2.5,4.2-7.2,9.1-12.4,9.1c-1.5,0-2.6-0.5-3.4-1.3
		c-0.8-1-1.1-2.5-0.9-4.4c0.4-2.6,3.1-7.9,5.8-13l0.2-0.4c1.8-3.5,3.4-6.5,4.8-9.9c0.8-1.9,0.5-3.5-0.7-4.1c-1.1-0.6-2.8-0.2-4,1.7
		c0,0-4.2,8.3-9.1,18.2c-5.3,9.2-10.8,13.4-13.9,13.4c-0.6,0-1.1-0.2-1.4-0.5c-0.4-0.4-0.4-1.1-0.3-1.6c0.1-1,2.7-5.8,4.7-9.7
		l0.2-0.4c0.9-1.8,1.8-3.4,2.4-4.6c1.3-2.6,2.1-4.8,2.3-6.8c0.4-2.8-0.1-5.2-1.6-6.9c-1.5-1.8-3.9-2.8-6.6-2.9
		c-3-0.1-6.1,1.3-7.6,2.1c0-0.3,0-0.6-0.2-0.8c-0.4-0.7-1.2-1.1-2.1-1.1c-1.1,0-2.1,0.6-2.7,1.8l-14.4,26.9
		c-0.3,0.3-0.6,0.6-0.9,0.9l-0.2,0.2c-1.5,1.4-3.1,3.1-4.2,2.7c-0.3-0.1-0.5-0.3-0.7-0.9c-0.2-0.7-0.6-4.4,1.7-8.8
		c0.3-0.4,0.5-0.7,0.6-0.8c0,0,0.3-0.5,0.7-1.2c0.2-0.3,0.3-0.5,0.3-0.6c1-1.9,1.7-3.2,2.1-4c0.3-0.7,0.7-1.4,1.1-2.2
		c0.6-1.1,1.2-2.3,1.7-3.6c0.2-0.5,0.3-1,0.4-1.5c0.2-1.5,0-2.9-0.6-4.1c-1-2-3.1-3.5-5.9-4.4c-5.5-1.7-14.2,1.4-21.3,12.1l-0.2,0.3
		c-0.6,0.9-1.8,2.7-3,5.2c-4.9,8.6-10.1,13.2-15.1,13.4c4.8-5.2,8.3-12.2,9.1-18.5c0.6-4.2-0.2-8-2.2-10.3c-1.7-1.9-4.2-2.9-7.4-2.9
		c-2.6,0-5.1,0.6-7.6,1.6l-0.4,0.2c-0.1-0.5-0.3-0.9-0.6-1.3c-0.5-0.5-1.1-0.8-1.9-0.8c-1.2,0-2.2,0.7-2.9,1.8l-16.2,30.1
		c-1.8,1.7-3.6,2.6-5.6,2.6h-0.2c-1,0-1.3-0.5-1.4-0.6c-0.4-0.7-0.2-2,0.6-3.6c0.2-0.5,0.6-1.3,1.2-2.2l0.1-0.3
		c2.4-4.4,6.8-12.7,7.4-16.6c0.5-3.2-0.1-5.6-1.8-7.7c-1.5-1.9-3.9-2.9-6.7-2.9h-0.3c-4,0-8.5,2-12.2,5.4c-1.1-4-5-5.5-8.4-5.6
		c-2.7-0.1-5.1,0.4-7.1,1.4c-0.3,0.1-0.7,0.3-1,0.5c-0.2-0.7-0.6-1.3-1.6-1.4c-1.1-0.1-2.2,0.5-2.8,1.5l-8.9,16.8
		c-6,10.9-11.8,13.7-14.4,13.7c0,0-0.1,0-0.1,0c5-5.3,8.7-12.5,9.6-19c0.6-4.2-0.2-8-2.2-10.3c-1.7-1.9-4.2-2.9-7.4-2.9h-0.7
		c-2.9,0-6,0.9-9.1,2.7l-0.6,0.4c0,0-3.9,2.8-4.8,3.9c-5.2,5.3-9,12.7-9.9,19.3c-0.2,1.2-0.2,2.5-0.1,3.8c-2,2.8-5.1,6.7-6.4,7.8
		c-3.5,3.1-7.5,5.4-10.6,7.1c-3.7,2-12,3.5-17.1,0.8c-5.9-3.1-8.9-9.5-8.6-18.4c0.2-7.4,2.5-14.4,3.3-16.4c1.1-2.5,2.5-5.1,4.6-8.2
		c5.8,1.2,11.8,1.6,17.4,1.1c12.6-1.1,22.4-6.3,26.1-13.9c1.4-2.9,1.5-6.1,0.3-8.9c-1.4-3.2-4.4-5.4-8.7-6.3
		c-8.8-2-24.2,6.8-37.4,21.2c0,0-0.1,0-0.2,0c-3.1-0.2-15.5-7.1-20-14c-0.5-0.7-1.1-1.1-1.9-1.3c-0.8-0.2-1.7,0.1-2.5,0.7
		c-1.3,1.2-1.5,3.2-0.6,4.6c4.6,6.9,12.1,12.2,21.6,15.3c-0.7,1.1-1.3,2.2-2,3.4c-3.5,6.9-5.4,12.9-5.9,18.5
		c-0.4,4.4-0.7,15.6,5.8,22.9c3.6,4,8.7,6.1,15.1,6.2h0.4c5.8,0,11.9-2.1,18.2-6.2c2.3-1.5,4.7-3.2,6.7-5.2c0.8-0.9,2.9-2.9,4.4-4.9
		c1.7,2.3,4.3,3.5,7.8,3.5h0.2h0.2h0h0.3c2.7,0,5.5-0.8,8.3-2.3l0.2-0.1c0.1-0.1,0.5-0.3,0.6-0.3l0,0c0.9,0.6,2.1,1.1,3.3,1.3
		c2.3,0.5,5.1-0.3,8.1-2.2c0,0,0,0,0,0c-0.1,0.8,0.1,1.6,0.6,2.2c0.4,0.5,1,0.8,1.7,0.8c1,0,2-0.7,2.7-1.7l11.9-22.8
		c4.3-8.1,10.6-8.8,12.6-8.8h0c1.6,0,2.8,0.5,3.5,1.3c0.7,0.8,1,1.5,0.8,3c-0.2,1.4-0.8,3.1-1.8,5c-2.4,4.5-4.7,8.8-6.8,12.5
		l-0.1,0.2c-1.4,2.6-2.7,5-3.9,7.2c-0.3,0.4-0.3,0.7-0.4,1.1c-0.1,0.8,0.1,1.6,0.5,2.2c0.4,0.5,1,0.8,1.7,0.8c1.1,0,2.1-0.7,2.7-1.7
		c1-1.9,2.2-4.1,3.5-6.4l0.5-0.9c2-3.6,4.4-8,6.8-12.7c5.3-10.5,11.8-11.4,13.8-11.4c1.5,0,2.7,0.5,3.3,1.3c0.7,0.8,1.1,1.7,0.8,3.4
		c-0.2,1.4-0.8,2.9-1.7,4.8c-2.7,5.2-4.3,8.3-5.2,10l-0.1,0.2c-0.6,1.1-0.9,1.8-1,1.9l-0.1,0.2c-0.7,1.4-1.1,2.7-1.3,4.1
		c-0.4,2.4,0.1,4.5,1.3,5.9c1.1,1.3,2.7,2,4.7,2.1c0.7,0,1.5-0.1,2.3-0.3l-10.3,19.1c-0.3,0.4-0.3,0.7-0.4,1.1
		c-0.1,0.8,0.1,1.6,0.6,2.1c0.5,0.5,1.1,0.8,1.9,0.8c1.2,0,2.2-0.7,2.9-1.8l13.4-25c0.2-0.4,0.6-0.6,1-0.7c0.3,0,0.6,0.1,0.8,0.3
		c0.7,0.8,1.6,1.7,2.4,2.2c1.7,1.2,3.9,1.8,6.8,1.8c2.8,0,6-0.9,9.1-2.7l0.4-0.3l0.4,0.2c1.5,0.5,2.9,0.7,4.3,0.7
		c4.5,0,8.8-2.1,12.9-6.3c0.1,1.6,0.5,3.1,1.2,4.2c1,1.7,3.2,3.8,7.7,3.8c3.5,0,7.1-2.1,10.9-6.4c0,0.3,0.1,0.6,0.2,1
		c0.1,0.5,0.5,2,1.8,3.2c0.6,0.6,1.3,1,2.2,1.3l0.4,0.1c1.1,0.2,2.3,0,3.6-0.7c0.3,0.9,1.1,1.8,2.3,1.8c1.1,0,2.1-0.7,2.7-1.8
		l12.2-22.8l1.5-2.3c3.6-5.9,8.9-6.5,11-6.5c1.3,0,2.3,0.3,2.9,1c0.6,0.7,0.8,1.7,0.6,3c-0.2,1.6-2.3,5.6-4.5,9.8
		c-1.3,2.5-2.6,5-3.8,7.5c-0.7,1.4-1.2,2.8-1.4,4.3c-0.3,2.2,0.3,4.3,1.5,5.8c1.2,1.4,2.9,2.1,4.9,2.1c3.8,0,8.2-2.5,12.3-6.9
		c1,4.3,4.3,6.9,8.8,6.9c2.1,0,4.3-0.5,6.3-1.5l-0.2,0.5c-0.2,0.3-0.4,0.6-0.7,0.7c-10.8,3.4-23.3,8.8-24.9,20.4
		c-0.4,2.5,0.2,4.8,1.6,6.3c1.2,1.4,3,2.2,5,2.2c9.6,0,18-14.9,22.1-23.9c0.2-0.3,0.4-0.6,0.8-0.7c8.1-2.6,17.4-7,24.9-20.7
		c0.2-0.4,0.4-0.8,0.4-1.1C519.2,148.5,518.8,147.5,517.9,147L517.9,147z M244.8,125.1l0.1-0.2c11-12,20.6-17.2,28.5-15.3
		c2.3,0.5,3.7,1.4,4.2,2.6c0.4,1,0.4,1.9-0.2,2.9c-2.7,5.8-11.1,10-21.3,10.9c-3.4,0.3-7.5,0.2-11.8-0.4
		C244.6,125.3,244.7,125.2,244.8,125.1L244.8,125.1z M293.8,158.9c-2.7,2.3-5.4,3.4-8,3.2c-0.8-0.1-1.5-0.2-2.2-0.3
		c-2.7-0.9-3.9-3.1-3.6-7.2c0.4-6.3,7.1-19.1,15.6-20.5c0.4-0.1,0.8-0.1,1.3-0.1c0.2,0,0.4,0,0.5,0c0.2,0,0.4,0,0.6,0
		c0.5,0,0.9,0.1,1.2,0.2l0.2,0c0.1,0,0.3,0.1,0.5,0.1l0.2,0c3,1,3.2,4,3,7.1C302.8,146,298.9,154.4,293.8,158.9L293.8,158.9z
		 M386.5,158.5c-2.6,2.3-5.2,3.4-7.8,3.4c-0.2,0-0.4,0-0.6,0c-2.7-0.2-4.5-1.1-5.5-2.6c-1.3-2.2-0.6-5.2,0.4-7.5l5.5-10.4l0.1-0.1
		c3.6-4.9,7.9-7.6,12-7.6c0.2,0,0.5,0,0.7,0c4.3,0.3,4.9,2.7,4.6,7.4C395.7,145.9,391.8,153.9,386.5,158.5L386.5,158.5z
		 M413.4,161.7L413.4,161.7c-1,0-2.3-0.2-2.8-1.1c-1.1-1.8-0.5-6.8,3.3-13.9c4.9-9.3,10.8-12.6,14.8-12.6c0.6,0,1.2,0.1,1.7,0.3
		c1.5,0.4,2.2,1.4,2.1,3c-0.4,0.7-0.8,1.5-1.1,2.2l-0.2,0.3c-0.5,1-1,2.1-1.6,3.2C419.7,160.8,414.3,161.7,413.4,161.7L413.4,161.7z
		 M485.2,175.8c-5.1,10-10.6,14.5-13.9,14.5c-0.7,0-1.2-0.2-1.5-0.5c-0.4-0.4-0.5-1.1-0.4-2.1c0.7-4.9,5.9-9.6,14.7-13.1
		c0.1,0,0.2-0.1,0.4-0.1c0.2,0,0.4,0.1,0.5,0.2C485.4,175,485.5,175.4,485.2,175.8L485.2,175.8z"/>
	<g>
		<g>
			<path class="st0" d="M536.1,65.7c-0.6-0.4-1.4-0.5-2.1-0.3c-0.8,0.2-1.4,0.7-1.8,1.5c-7.6,14.5-14,20.4-18,22.9
				c-4,2.4-6.5,2-7.3,1.8c-0.6-0.3-1-0.7-1.3-1.5c-1.2-4.1,1.2-9.5,2.9-13.4l0.5-1.1c0.7-1.8,1.7-3.4,2.6-5.1
				c1.2-2.1,2.5-4.3,3.3-6.7c0.8-2.3,0.7-4.4-0.2-6.2c-1.1-2.2-3.5-4-6.7-5c-6.3-2-16.5,1.6-24.8,14.2c-1.5,2.2-2.9,4.4-4.2,6.5
				c-6.4,10.2-11.5,18.3-20.3,18.3c-1.8-0.2-2.8-1.2-3-1.7c-2.3-6.1,0.2-10.6,16.6-40.2c1.4-2.6,3-5.3,4.6-8.3l5.8-10.7
				c0.4-0.6,0.5-1.4,0.3-2.2c-0.2-0.7-0.7-1.3-1.3-1.6c-1.3-0.8-3.1-0.3-3.9,1.1l-5.8,10.7c-10.4,18.8-15.3,27.8-15.5,28.2
				c-7.7,14.5-14.1,20.4-18.1,22.9c-4,2.5-6.6,2-7.3,1.9c-1.2-0.5-1.6-1.1-1.8-1.6c-2.3-6.1,0.2-10.6,16.6-40.2
				c1.4-2.6,3-5.3,4.6-8.3l5.8-10.7c0.4-0.6,0.5-1.4,0.3-2.2c-0.2-0.7-0.7-1.3-1.3-1.6c-1.3-0.8-3.1-0.3-3.9,1.1
				c0,0-5.8,10.6-5.8,10.7c-6.1,11.1-16.3,30.4-19.7,36.7l-0.2,0.3c-4.3,8.1-11,14.1-17.1,15.3c-3.2,0.7-6.1,0-8.5-2
				c-2-1.7-3-4-3-6.9c6.3,0.4,14.2-3.4,20.7-10c6.1-5.9,7.9-13.2,4.3-17.3c-4.2-4.7-12-2.3-17.5,1.8c-5.2,4.1-11.6,13.1-13,21.7
				c-4.7,6.9-10.6,13.8-18.5,12.8c-1.2-0.2-2.1-0.7-2.6-1.7c-1.4-2.7-0.9-10,9.5-29.3l1.9-3.6c0.7-1.4,0.7-1.5,1.1-2.1l0.5-1h19.1
				l0,0c0.8,0,1.5-0.3,2-0.8c0.5-0.5,0.8-1.2,0.8-1.9c0-0.8-0.3-1.5-0.8-2c-0.5-0.6-1.2-0.9-2-0.9h-16.1c1.1-2.1,2.6-5.1,4.2-7.9
				c2.1-4,4.1-7.7,4.7-8.9c0.8-1.5,0.5-3.2-0.8-4c-1.4-0.7-3.1-0.1-3.8,1.2L380,47.8l-10.1-0.2l0,0c-0.8,0-1.5,0.3-2,0.9
				c-0.5,0.5-0.8,1.3-0.8,2c0,0.7,0.3,1.4,0.8,1.9c0.5,0.5,1.2,0.8,2,0.8l7.1,0.1l-2.1,4.2c-3.4,6.3-6,11.7-7.9,16.2
				c-1.7,3.2-3.7,6.4-6.5,9.3l-0.7,0.7c-2.4,2.5-5.3,5.5-8.6,6.5c2.7-5.5,4-12,3.5-19.2c-0.7-9.2-4.4-17.3-7.6-24.5
				c-2.7-6-5.3-11.7-5.7-17.2c-0.4-4.6,0.8-8.9,3.2-12c2.4-3.1,5.8-4.9,9.7-5.2c3.5-0.3,7,0.7,9.2,2.6c1.4,1.2,2.2,2.6,2.3,4.2
				c0.3,4.1-2.6,7.8-6.4,8.1c-1.1,0.1-2.2-0.4-3.3-0.8l-0.1,0c-1-0.4-1.9-0.8-2.7-0.7c-1.7,0.1-3.1,1.8-3,3.6c0.1,1.6,1.4,3,3.7,3.8
				c2.1,0.8,4.5,0.9,5.9,0.8c3.6-0.3,6.8-2.1,9.2-5c2.3-2.9,3.5-6.6,3.2-10.2c-0.4-5.3-3.7-8.4-6.4-10.1c-3.4-2.1-7.8-3.2-12.1-2.8
				c-5.9,0.5-11.1,3.3-14.5,8.1c-3.3,4.5-4.8,10.3-4.4,16.3c0.6,7.4,3.7,14.3,6.7,21c3,6.6,6.1,13.4,6.6,20.7
				c0.5,7.1-0.9,12.9-3.4,17.5l-0.1-0.1l-0.3,0.6c-0.2,0.4-0.4,0.8-0.6,1.2c-5.3,8-14,11.9-20.6,12.4c-6.8,0.5-13.8-1.6-18.6-5.8
				c-4.4-3.8-7-9.1-7.5-15.3c-0.2-3.2,0.1-6.7,1-10.5c3.8-15.1,13.2-17,16-17.2c3.3-0.3,6.4,0.7,8.7,2.6c2,1.7,3.2,4.2,3.4,6.8
				c0.1,0.9-0.2,2-0.4,3.1c-0.3,1.2-0.5,2.4-0.4,3.6c0.1,0.8,0.5,1.6,1.1,2.1c0.7,0.6,1.5,0.9,2.4,0.8c1.7-0.1,2.8-1.5,3.4-4
				c0.6-2.5,0.5-5.3,0.4-6.1c-0.4-4.8-2.6-9-6.4-11.9c-3.5-2.7-8.1-4-12.8-3.7c-6.1,0.5-12.2,4.3-16.6,10.5c-2.1,3-3.8,6.2-4.9,9.6
				c-1.5,4.6-2.3,8.5-2.3,11.8c-2,2.8-4.2,5.6-6.9,7.8c-2.7,2.1-5.1,3-7.5,2.8c-0.5-0.1-0.8-0.3-1-0.8c-1.7-3.3,0.1-14.5,11-35.1
				c0.7-1.4,0.2-3.1-1.2-3.8c-1.4-0.7-3.1-0.2-3.8,1.2c-1.6,3.1-4.1,7.8-6.3,13.1c-0.3,0.7-7.3,12.9-11.5,18.5
				c-1.8,2.4-3.6,4.2-5.6,5.6c-2.6,1.8-5.4,0-5.5-0.1L251,89c-2.6-2.4,0.4-8.3,2.6-12.7c0.6-1.1,1.1-2.2,1.4-3
				c4.4-9.7,5.7-14.6,1.7-20.1c-2-2.5-6.3-4.1-10.4-4.1c-6,0.1-8.9,2.7-11.9,5.5c-0.4,0.3-0.7,0.7-1.1,1c-1-2.2-4.9-6.9-11.8-7.6
				c-2.9-0.3-5.9,0.5-8.9,2.4c-0.3-0.6-0.7-1.1-1.3-1.4c-0.7-0.4-1.5-0.5-2.3-0.3c-0.8,0.2-1.4,0.7-1.8,1.4
				c-0.9,1.6-2.3,5.2-3.9,8.9c-0.7,1.8-1.5,3.6-2.2,5.4c-0.4,0.7-0.7,1.5-1.1,2.3l-0.3,0.7c-12.8,24.1-22.1,23.1-24.7,22.3
				c0,0-0.1,0-0.1,0c-0.7-0.3-1.1-0.8-1.3-1.6c-1.1-3.4,1-11,5.8-21.1c0.1-0.2,0.2-0.3,0.3-0.5c0.1-0.2,0.2-0.3,0.3-0.4L180,66v-0.2
				c0,0,0-0.1,0-0.1c0-0.1,0-0.1,0.1-0.2c3.3-6.5,6.5-11.9,7.7-13.6c0.5-0.7,0.7-1.5,0.6-2.3c-0.1-0.8-0.6-1.4-1.2-1.9
				c-0.6-0.5-1.3-0.7-2.1-0.7c-0.8,0.1-1.6,0.5-2.2,1.3l-0.1,0.1v0c-0.1,0.1-0.2,0.4-0.5,0.8c-1.4,2.2-5,8.2-8.4,15.1
				c-14.2,27-24.2,26.2-26.2,25.7c-0.7-0.3-1.1-0.8-1.4-1.6c-2.3-7.9,11.4-32.3,14.4-36.3c1-1.3,0.7-3.1-0.6-4.1
				c-0.7-0.5-1.5-0.8-2.3-0.6c-0.8,0.1-1.5,0.6-2,1.3l0,0c-0.6,0.8-5.1,8-9.1,16.1c-5.6,11.7-7.7,20.2-6.1,25.4
				c0.8,2.7,2.5,4.6,5,5.5l0.1,0c0.1,0,0.2,0,0.4,0.1c0.7,0.2,1.8,0.4,3.1,0.4c4-0.1,10.4-2,18-10.8c0,1.6,0.1,3.2,0.5,4.5
				c0.8,2.6,2.6,4.5,5.2,5.6c0.2,0.1,1.5,0.3,3.5,0.5c3.5,0.2,7.2-1.2,10.9-4.1l-0.1,0.1c-0.7,1.4-0.1,3.3,1.3,4.1
				c0.5,0.3,1.1,0.3,1.5,0.3c1.1,0,2.1-0.6,2.7-1.6l13.3-28c7.7-14.3,13.4-14.1,17.1-12.8c4.2,1.5,5.6,4.6,4.2,8.9
				c-2.3,5.8-3.9,9-5.9,12.9c-0.8,1.7-1.8,3.6-2.9,5.9l-0.7,1.4c-1.5,2.9-2.7,5.5-4.1,8.2c-0.6,1.3-1.7,3.7,0.8,4.9
				c0.6,0.3,1.1,0.4,1.5,0.4c1.7,0,2.6-1.7,3-2.4l0.1-0.1c0.8-1.5,1.3-2.7,1.9-3.9c0.5-1,0.9-2,1.6-3.3c5.4-11.5,7.8-16.1,11.1-22.3
				c0.2-0.3,0.3-0.6,0.5-1c2-4,5.5-10.6,13.2-9.1c2.2,0.4,3.6,1.3,4.3,2.8c1.8,3.4-0.5,9.3-2.4,13.4c-4.7,10.2-8.5,19.8-3.9,23.8
				c1.3,1.1,2.6,1.7,3.9,1.9c8.2,1.5,14.2-5.9,17.4-9.8c0.4-0.5,0.8-0.9,1.1-1.3c-0.2,2.9,0.2,5.2,1,6.9c0.9,2.1,2.8,3.5,5.2,4
				c0.9,0.2,1.9,0.2,2.8,0.2c4-0.2,8-2.3,11.9-6.2c0.2-0.2,0.4-0.4,0.6-0.6c0.6-0.5,1.2-1.1,1.7-1.7c0.4,1.3,0.8,2.6,1.3,3.9
				c1.6,4.5,4.8,8.8,9,11.9c5.4,4.2,12.4,6.5,19.6,6.5c0.9,0,1.8,0,2.6-0.1c8.9-0.7,17.8-5.5,23.8-13.4c0.2,0,0.5,0,0.7,0
				c0.2,0,0.3,0,0.5,0c2.5-0.1,5.2-1,7.9-2.7c1.9-1.2,3.8-2.4,5.5-4.1c0.4-0.4,0.8-0.9,1.2-1.3c0.2-0.2,0.3-0.4,0.5-0.6
				c0,1.8,0.4,3.3,0.9,4.7c1.2,2.8,4.2,4.8,7.7,5c0.4,0,0.9,0,1.3,0c8.3,0,15-5.1,18.5-9.9c0.8,2.2,2.2,4.2,4.2,6
				c2.9,2.3,6.4,3.5,10,3.5l0,0c1.3,0,2.5-0.1,3.4-0.4c4.7-0.8,9.6-3.4,13.7-7.2c0.5,3.7,2.4,6.1,5.7,7.4l0.1,0c0.1,0,0.2,0,0.4,0.1
				c0.7,0.1,1.6,0.4,2.9,0.4l0,0c3.9,0,10-1.8,17.4-10.3c-0.1,1.9,0.1,3.5,0.6,4.8c1,2.4,2.6,4,5.1,5l0.1,0c0.1,0,0.2,0,0.4,0.1
				c0.6,0.1,1.6,0.4,2.9,0.4l0,0c3.8,0,9.7-1.7,17-9.8c0.1,2.1,0.5,3.9,1.4,5.4c1.2,2,3.6,4.3,8.7,4.3l0,0c4.3,0,8.9-2.9,13.9-8.9
				c0,1.2,0.1,2.2,0.4,3.3c0.8,2.5,2.5,4.3,4.8,5.2l0.1,0c0.1,0,0.2,0,0.4,0.1c0.6,0.1,1.6,0.4,2.9,0.4l0,0
				c5.4,0,16.3-3.6,29.1-27.9C538,68.1,537.5,66.4,536.1,65.7L536.1,65.7z M509.3,62.4c-0.5,1-1,2-1.6,3c-0.6,1.2-1.2,2.5-2,3.8
				c-11.7,20.8-18.1,22.5-19.8,22.5l0,0c-1.4,0-3.1-0.3-3.8-1.6c-1.7-2.7-0.1-9.4,4-17.1c6-11.5,13.4-15.3,18.1-15.3
				c0.8,0,1.6,0.1,2.2,0.3C508.5,58.8,509.4,60.2,509.3,62.4L509.3,62.4z M408.1,61.4L408.1,61.4c2.9-2.3,5.6-3.4,7.4-3.4
				c0.9,0,1.5,0.2,1.9,0.7c1.4,1.4-0.2,5.3-3.8,9.3c-4.9,4.9-11,8.1-15.6,8.1C399.9,70.6,404,64.6,408.1,61.4L408.1,61.4z"/>
			<path class="st0" d="M170.4,103c-24.1,18.7-38.2,8-54.5-4.4l-0.7-0.5c-3.5-2.7-7.1-5.4-10.9-7.8c7.5-9.7,14.9-22.8,21.4-34.4
				l9.5-16.5c1.2-0.1,2.3-0.2,3.4-0.4c0.5-0.1,1.1-0.2,1.6-0.2c20.2-3,40.8-12.7,41.2-27.7c0.1-5-2.3-8.8-6.4-10.3
				c-8.3-3.1-21.9,3.4-31.6,15.1c-2.2,2.8-9,12.5-12.3,17.6c-8.2,0.7-15,0.1-21-1.6c-4-1.2-11-4.1-12.9-10.7
				c-0.5-1.9-1.1-5.4,1.8-7.9c0.3-0.3,3.3-2.7,8.6,0.5l0.4,0.3c1.4,0.9,3.9,2.4,5.4,0.4c1.2-1.5,1-3.6-0.5-5.1
				c-1.1-1.1-2.4-1.9-4-2.7c-3.4-1.5-8.5-1.6-11.9-0.3c-3,1.3-5.5,4.1-6.6,7.7c-1.8,5.7-0.3,14.4,9.5,20.2
				c8.3,4.8,14.1,5.2,23.8,5.5c1.2,0,2.4,0.1,3.7,0l-7.4,13c-7.2,13-14.2,25.4-21.2,34.2c-5.6-2.9-11-4.4-16.4-4.5
				c-5.2-0.1-9.8,0.8-13.1,2.9c-3.3,2.1-5.2,5.2-5.3,8.5c-0.1,2.8,1.1,5.7,3.4,7.9c3,2.9,7.5,4.4,12.7,4.2c8.6-0.3,14.2-5.7,18.7-10
				c0.4-0.3,0.7-0.7,1.1-1c3.8,2.3,7.5,5.1,11.8,8.5c9.5,7.3,20.3,15.5,33.4,15.9c0.3,0,0.6,0,0.9,0c9.1,0,18.6-3.9,28.3-11.5
				c1.4-1.1,1.6-3,0.6-4.5C173.8,102.1,171.8,101.9,170.4,103L170.4,103z M139.5,32.5c3.4-5,7.4-10.7,9-12.7
				c8.6-10.3,19.3-14.9,24.3-13.1l0.1,0c0.7,0.3,2.3,1,2.2,4.2C174.8,20.3,159.9,29.4,139.5,32.5L139.5,32.5z M82.3,88.9
				C86.1,89,89.9,90,94,91.8c-3.2,3.1-8,7.5-13.7,7.9c-4.5,0.4-7-1.3-8.1-2.4c-1-1-1.6-2.2-1.6-3.3c0-1.5,1.3-2.6,2.4-3.2
				c1.3-0.9,3.8-1.9,8.5-1.9C81.7,88.9,82,88.9,82.3,88.9L82.3,88.9z"/>
			<path class="st0" d="M286.4,39.4c-2.2,0.9-5.2-0.1-5.2-0.1s2.8,1.8,3.7,4.1c0.8,2,0,4.9,0,4.9s1.9-2.6,3.9-3.5c2-0.9,5-0.3,5-0.3
				s-2.3-0.8-3.5-3.6c-1.2-2.7-0.2-5.4-0.2-5.4S288.6,38.5,286.4,39.4"/>
		</g>
		<path class="st0" d="M537.6,52.8c0,1.6-1.3,2.9-3,2.9c-1.7,0-3-1.3-3-2.9s1.3-2.9,3-2.9C536.3,49.9,537.6,51.2,537.6,52.8z
			 M532.6,52.9c0,1.2,0.9,2.2,2.1,2.2s2.1-1,2.1-2.2c0-1.2-0.9-2.2-2.1-2.2S532.6,51.6,532.6,52.9L532.6,52.9z M534.3,54.2h-0.8
			v-2.7c0.2,0,0.6-0.1,1.2-0.1c0.6,0,0.9,0.1,1.1,0.2c0.2,0.1,0.3,0.3,0.3,0.6s-0.3,0.5-0.6,0.6v0c0.3,0.1,0.5,0.3,0.6,0.7
			c0.1,0.4,0.1,0.5,0.2,0.6h-0.9c-0.1-0.1-0.1-0.3-0.2-0.6c0-0.3-0.2-0.4-0.5-0.4h-0.3L534.3,54.2L534.3,54.2z M534.3,52.7h0.2
			c0.3,0,0.5-0.1,0.5-0.3c0-0.2-0.2-0.3-0.5-0.3c-0.1,0-0.2,0-0.3,0L534.3,52.7L534.3,52.7z"/>
	</g>
	<path class="st0" d="M93.8,53.7c-0.2-0.5-0.5-0.9-0.9-1.1c-0.4-0.3-0.9-0.3-1.4-0.2c-0.5,0.1-0.9,0.5-1.1,0.9
		c-7.8,14-18.4,13.6-18.5,13.6c-1.5-0.1-2.3-0.4-3-1.6c-0.9-1.5-0.6-3.8,0.9-6.9h0.1c7.6,0,13.1-2.3,15.3-6.3c2-3.6,0.8-6-1-7.1
		c-1.2-0.7-3-0.8-5-0.3C74.6,46,70,50,66.9,55.6l-0.1,0.1v0.1c-0.1,0.2-0.2,0.4-0.3,0.5l-0.1,0.2c-4.2,6-9.6,9.9-12.4,10.2
		c-0.2,0-0.4,0-0.6,0c0-0.2,0-0.9,0.6-2.2c0.7-1.5,1.9-3.5,3-5.5l0.3-0.6c2.9-4.7,5.6-9.1,4-11.9c-0.8-1.4-2.1-2.3-3.7-2.6
		c-3-0.6-6.9,1-9.8,2.6l6.3-12.1c9,1.2,18.6,1.5,22.4-4.8c2-3.2,1.2-6.9-1.9-9c-4.4-3-13.8-2.7-21,7.2c-0.7,1.1-1.1,1.8-1.5,2.5
		c-2.6-0.4-5.3-0.9-7.9-1.3L43.8,29c-16-2.8-32.6-5.8-38,4.9c-1.9,3.6-1.3,7.9,1.5,11c2,2.2,4.8,3.4,7.7,3.5c1.6,0,3.1-0.3,4.6-0.9
		c0.5-0.2,0.8-0.5,1-1c0.2-0.5,0.2-1,0-1.5c-0.4-0.9-1.5-1.4-2.5-1c-3,1.2-6.2,0.5-8.1-1.6c-1.8-2-2.1-4.5-0.9-6.8
		c3.8-7.4,15.6-6.1,29.6-3.7c-0.4,0.7-1,2-1.8,3.6C32.7,43.9,23,63.4,19.8,68c-4.2,6.3-11,5.5-13,5.1C5,72.8,4.2,72,4.1,71.7
		c-0.2-1-1.1-1.7-2.2-1.6c-0.5,0.1-0.9,0.3-1.2,0.7c-0.3,0.4-0.4,0.9-0.3,1.4c0.4,2.2,2.7,3.9,5.8,4.5C6.8,76.9,7.6,77,8.3,77
		c0.3,0,0.6,0,0.9,0c3.9,0,9.5-0.7,13.9-7.1c1.5-2.2,3.4-5.9,6-11.1c1.5-3,3.2-6.4,5.3-10.4l0.2-0.3c3.8-7.3,7.4-14.2,8.2-15.4
		l7.4,1.1l-9.1,17.5c-0.1,0.1-0.2,0.3-0.2,0.4l-8.8,16c-0.2,0.4-0.3,0.9-0.2,1.4c0.1,0.5,0.5,0.9,0.9,1.2c0.3,0.2,0.6,0.2,0.9,0.2h0
		c0.6,0,1.2-0.4,1.6-0.9l8.8-15.9c2.8-2.5,9.8-6.6,13-6c0.5,0.1,0.8,0.3,1,0.6c0.2,0.4,0,1.9-3.9,8.2l0,0.1
		c-3.3,5.4-6.1,10-3.4,12.7c0.4,0.5,1.3,1.2,3,1.3c0.1,0,0.3,0,0.4,0h0.1c0.1,0,0.2,0,0.4,0c2.8-0.4,6.4-2.6,9.9-6.1
		c0.1,1,0.4,1.9,0.9,2.7c1.6,2.8,4.3,3.4,5.8,3.5c2.6,0.2,14.2-1.7,22.3-15.4C93.9,54.8,94,54.2,93.8,53.7L93.8,53.7z M72.1,54.6
		c3.8-5,7.8-6.4,9.5-6.4h0.1c0.3,0,0.6,0.1,0.7,0.2c0.1,0.3-0.1,1-0.6,1.9C80.5,52.7,77,54.2,72.1,54.6L72.1,54.6z M72.7,23.8
		c1.4,1,1.7,2.4,0.7,3.9c-2.6,4.3-10.5,4-17.3,3.2c0.2-0.3,0.3-0.5,0.5-0.8C62.1,22.6,69.5,21.6,72.7,23.8L72.7,23.8z"/>
</g>
</svg>
