<?xml version="1.0" encoding="utf-8"?>
<!-- Generator: Adobe Illustrator 26.0.2, SVG Export Plug-In . SVG Version: 6.00 Build 0)  -->
<svg version="1.1" id="Layer_1" xmlns="http://www.w3.org/2000/svg" xmlns:xlink="http://www.w3.org/1999/xlink" x="0px" y="0px"
	 viewBox="0 0 219 80" style="enable-background:new 0 0 219 80;" xml:space="preserve">
<style type="text/css">
	.st0{fill:none;}
	.st1{fill:#020203;}
	.st2{fill:url(#SVGID_1_);}
	.st3{fill:#E62928;}
	.st4{fill:#BD2126;}
	.st5{fill:#E6282B;}
	.st6{fill:#141E29;}
	.st7{fill:#F32735;}
</style>
<g>
	<g>
		<g>
			<g>
				<g>
					<path class="st6" d="M149.9,36.8c-5.9-3.6-14.5-5.4-22.4-6.3l-3.3-9.2c2.8-1.2,4.7-2.4,5.6-3c2-1.4,0.4-2.2,0.4-2.2
						c-7.1,2.7-14.2,3.5-20.4,3.5v0c-0.1,0-0.2,0-0.3,0c-0.1,0-0.2,0-0.4,0v0c-6.2,0.1-13.2-0.8-20.4-3.5c0,0-1.6,0.8,0.4,2.2
						c0.9,0.6,2.8,1.9,5.6,3l-3.3,9.2c-7.8,0.9-16.5,2.7-22.4,6.3c0,0-0.9,1.3,0.8,1c1.6-0.3,10.8-3.3,39.4-3.2v0c0,0,0.1,0,0.1,0
						c0.1,0,0.2,0,0.3,0v0c28.6-0.1,37.8,2.9,39.4,3.2C150.7,38.1,149.9,36.8,149.9,36.8z M118.3,29.7c-4.5-0.2-7.8-0.1-8.8-0.1
						c-1.1,0-4.4-0.1-8.8,0.1v-6.6c2.6,0.5,5.5,0.9,8.8,0.8c3.3,0.1,6.3-0.2,8.8-0.8V29.7z"/>
					<path class="st7" d="M137.5,6.9l-8.9-2.1l1.1,2.4c-3.2,1.6-10.3,4.5-20.1,4.5c-13.8,0.1-22.1-5.6-22.1-5.6v5.6
						c8.1,3.8,15.5,5.1,21.9,5.2v0c0.1,0,0.1,0,0.2,0c0.1,0,0.1,0,0.2,0v0c6.4,0,13.8-1.4,21.9-5.2v-0.1l1.1,2.4L137.5,6.9z"/>
					<path class="st7" d="M123.3,3.1c0,0-5.5,3.2-13.8-3.1c-8.3,6.2-13.8,3.1-13.8,3.1l-0.7,4c8.5,2.6,14.5-2.2,14.5-2.2v0
						c0,0,6,4.8,14.5,2.2L123.3,3.1z"/>
				</g>
			</g>
			<g>
				<path class="st6" d="M44.7,50.9L44.7,50.9c0.5-1,1.6-1.6,2.7-1.6c1.3,0,2.4,0.7,3,1.9c0.6-1.3,1.7-1.9,3.1-1.9
					c2.7,0,3.3,1.9,3.3,4.2v6.6h-1v-6.8c0-1.6-0.3-3.1-2.3-3.1c-2.2,0-2.7,1.9-2.7,3.8v6.1h-1v-6.5c0-1.6-0.3-3.3-2.4-3.3
					c-2.2,0-2.6,2.3-2.6,4v5.8h-1V49.6h1V50.9z"/>
				<path class="st6" d="M72.7,60.2h-1v-1.9h0c-0.8,1.3-2.5,2.1-4,2.1c-3.2,0-5.2-2.5-5.2-5.6c0-3.1,2-5.4,5.2-5.4
					c1.6,0,3.2,0.7,4.1,2.1h0v-1.8h1V60.2z M63.4,54.8c0,2.4,1.6,4.6,4.2,4.6c2.7,0,4.2-2.2,4.2-4.7c0-2.4-1.7-4.4-4.2-4.4
					C65.1,50.3,63.4,52.5,63.4,54.8z"/>
				<path class="st6" d="M80.5,51L80.5,51c0.5-1,1.2-1.6,2.3-1.6c0.4,0,0.8,0.1,1.1,0.3l-0.5,0.9c-0.3-0.1-0.5-0.2-0.7-0.2
					c-2.3,0-2.2,2.9-2.2,4.4v5.4h-1V49.6h1V51z"/>
				<path class="st6" d="M90,54.1l4.3-4.5h1.3l-4.4,4.6l5.9,6h-1.3l-5.2-5.3L90,55.5v4.7h-1V41.3h1V54.1z"/>
				<path class="st6" d="M102,55c-0.1,2.7,1.8,4.5,4.2,4.5c1.6,0,3-1,3.7-2.4l0.9,0.5c-1,1.8-2.7,2.9-4.7,2.9
					c-3.1,0-5.1-2.5-5.1-5.5c0-3,2-5.5,5.1-5.5c3.2,0,5.1,2.6,5.1,5.6H102z M110.1,54c-0.3-1.9-1.9-3.7-4-3.7
					c-2.2,0-3.9,1.7-4.1,3.7H110.1z"/>
				<path class="st6" d="M118,60.2h-1v-9.6h-1.2v-1h1.2v-3.8h1v3.8h1.9v1H118V60.2z"/>
				<path class="st7" d="M132.7,41.3h2.5v18.9h-2.5V59c-1,1-2.1,1.5-3.4,1.5c-1.5,0-2.7-0.5-3.7-1.6c-1-1.1-1.5-2.5-1.5-4.2
					c0-1.6,0.5-3,1.5-4.1c1-1.1,2.2-1.6,3.7-1.6c1.3,0,2.4,0.5,3.4,1.6V41.3z M126.7,54.7c0,1,0.3,1.9,0.8,2.5c0.6,0.7,1.3,1,2.2,1
					c0.9,0,1.7-0.3,2.3-1c0.6-0.7,0.9-1.5,0.9-2.5c0-1-0.3-1.9-0.9-2.5c-0.6-0.6-1.3-1-2.2-1c-0.9,0-1.6,0.3-2.2,1
					C127,52.9,126.7,53.7,126.7,54.7z"/>
				<path class="st7" d="M140,54.6c0-1.6,0.6-2.9,1.7-4c1.1-1.1,2.5-1.7,4.1-1.7c1.6,0,3,0.6,4.1,1.7c1.1,1.1,1.7,2.5,1.7,4.1
					c0,1.6-0.6,3-1.7,4.1c-1.1,1.1-2.5,1.6-4.2,1.6c-1.6,0-3-0.6-4.1-1.7C140.6,57.7,140,56.3,140,54.6z M142.6,54.7
					c0,1.1,0.3,1.9,0.9,2.6c0.6,0.6,1.4,1,2.4,1c1,0,1.8-0.3,2.4-0.9c0.6-0.6,0.9-1.5,0.9-2.5c0-1.1-0.3-1.9-0.9-2.5
					c-0.6-0.6-1.4-1-2.4-1c-1,0-1.7,0.3-2.3,1C142.9,52.8,142.6,53.7,142.6,54.7z"/>
				<path class="st7" d="M156,44.8c0-0.4,0.2-0.8,0.5-1.1c0.3-0.3,0.7-0.5,1.2-0.5c0.5,0,0.8,0.2,1.2,0.5c0.3,0.3,0.5,0.7,0.5,1.2
					c0,0.5-0.2,0.8-0.5,1.2c-0.3,0.3-0.7,0.5-1.2,0.5c-0.5,0-0.8-0.2-1.2-0.5C156.2,45.6,156,45.2,156,44.8z M158.9,49.3v16.8h-2.5
					V49.3H158.9z"/>
				<path class="st7" d="M163.8,54.6c0-1.6,0.6-2.9,1.7-4c1.1-1.1,2.5-1.7,4.1-1.7c1.6,0,3,0.6,4.1,1.7c1.1,1.1,1.7,2.5,1.7,4.1
					c0,1.6-0.6,3-1.7,4.1c-1.1,1.1-2.5,1.6-4.2,1.6c-1.6,0-3-0.6-4.1-1.7C164.3,57.7,163.8,56.3,163.8,54.6z M166.3,54.7
					c0,1.1,0.3,1.9,0.9,2.6c0.6,0.6,1.4,1,2.4,1c1,0,1.8-0.3,2.4-0.9c0.6-0.6,0.9-1.5,0.9-2.5c0-1.1-0.3-1.9-0.9-2.5
					c-0.6-0.6-1.4-1-2.4-1c-1,0-1.7,0.3-2.3,1C166.6,52.8,166.3,53.7,166.3,54.7z"/>
			</g>
		</g>
	</g>
	<g>
		<path class="st6" d="M52.7,77.1c-0.4,0-0.7-0.1-1-0.2c-0.3-0.1-0.5-0.3-0.8-0.5c-0.2-0.2-0.4-0.4-0.5-0.7
			c-0.1-0.3-0.2-0.5-0.2-0.8c0-0.3,0.1-0.6,0.2-0.9c0.1-0.3,0.3-0.5,0.6-0.7c0.3-0.2,0.6-0.3,0.9-0.4c0.4-0.1,0.8-0.2,1.2-0.2
			c0.3,0,0.7,0,1.1,0.1c0.4,0.1,0.7,0.2,1,0.3v-0.6c0-0.6-0.2-1.1-0.5-1.5c-0.4-0.4-0.8-0.5-1.4-0.5c-0.4,0-0.7,0.1-1.1,0.2
			c-0.4,0.1-0.7,0.3-1.1,0.6l-0.3-0.6c0.5-0.3,0.9-0.5,1.3-0.7c0.4-0.2,0.9-0.2,1.3-0.2c0.8,0,1.5,0.2,2,0.7c0.5,0.5,0.7,1.2,0.7,2
			v3.1c0,0.2,0.1,0.4,0.3,0.4V77c-0.1,0-0.1,0-0.2,0c-0.1,0-0.1,0-0.2,0c-0.2,0-0.3-0.1-0.5-0.2c-0.1-0.1-0.2-0.3-0.2-0.5l0-0.5
			c-0.3,0.4-0.7,0.7-1.2,1C53.7,77,53.2,77.1,52.7,77.1z M52.9,76.4c0.4,0,0.8-0.1,1.2-0.3c0.4-0.2,0.7-0.4,0.9-0.7
			c0.1-0.1,0.1-0.2,0.2-0.3c0-0.1,0.1-0.2,0.1-0.3v-1.1c-0.3-0.1-0.6-0.2-0.9-0.3c-0.3-0.1-0.6-0.1-1-0.1c-0.7,0-1.2,0.1-1.6,0.4
			c-0.4,0.3-0.6,0.6-0.6,1.1c0,0.2,0,0.4,0.1,0.5c0.1,0.2,0.2,0.3,0.3,0.5c0.1,0.1,0.3,0.3,0.5,0.3C52.4,76.4,52.6,76.4,52.9,76.4z"
			/>
		<path class="st6" d="M64.4,77h-0.9v-3.9c0-0.8-0.1-1.4-0.4-1.8c-0.2-0.4-0.6-0.6-1.1-0.6c-0.3,0-0.5,0-0.8,0.1
			c-0.3,0.1-0.5,0.2-0.7,0.4c-0.2,0.2-0.4,0.4-0.6,0.6c-0.2,0.2-0.3,0.5-0.4,0.8V77h-0.9v-7h0.8v1.6c0.1-0.2,0.3-0.5,0.5-0.7
			c0.2-0.2,0.4-0.4,0.7-0.5c0.3-0.2,0.5-0.3,0.8-0.3c0.3-0.1,0.6-0.1,0.9-0.1c0.4,0,0.7,0.1,1,0.2c0.3,0.1,0.5,0.3,0.6,0.6
			s0.3,0.6,0.3,0.9c0.1,0.4,0.1,0.8,0.1,1.2V77z"/>
		<path class="st6" d="M77.1,76.2V77h-6.4v-9.5H77v0.8h-5.3v3.4h4.6v0.8h-4.6v3.6H77.1z"/>
		<path class="st6" d="M81.4,77.1c-0.5,0-1.1-0.1-1.6-0.3c-0.5-0.2-1-0.4-1.3-0.8l0.4-0.6c0.4,0.3,0.8,0.6,1.2,0.7
			c0.4,0.2,0.8,0.2,1.3,0.2c0.6,0,1-0.1,1.3-0.3c0.3-0.2,0.5-0.5,0.5-1c0-0.2,0-0.4-0.1-0.5c-0.1-0.1-0.2-0.2-0.4-0.3
			c-0.2-0.1-0.4-0.2-0.7-0.3c-0.3-0.1-0.6-0.2-0.9-0.2c-0.4-0.1-0.7-0.2-1-0.3c-0.3-0.1-0.5-0.2-0.7-0.3c-0.2-0.1-0.3-0.3-0.4-0.5
			c-0.1-0.2-0.1-0.4-0.1-0.7c0-0.3,0.1-0.7,0.2-0.9c0.1-0.3,0.3-0.5,0.6-0.7c0.2-0.2,0.5-0.3,0.8-0.4c0.3-0.1,0.7-0.1,1-0.1
			c0.5,0,1,0.1,1.5,0.3c0.4,0.2,0.8,0.4,1.1,0.7l-0.4,0.5c-0.3-0.3-0.6-0.5-0.9-0.6c-0.4-0.1-0.8-0.2-1.2-0.2c-0.2,0-0.5,0-0.7,0.1
			c-0.2,0-0.4,0.1-0.5,0.2c-0.2,0.1-0.3,0.2-0.4,0.4c-0.1,0.2-0.1,0.4-0.1,0.6c0,0.2,0,0.3,0.1,0.5c0.1,0.1,0.2,0.2,0.3,0.3
			c0.1,0.1,0.3,0.2,0.5,0.2c0.2,0.1,0.5,0.1,0.8,0.2c0.4,0.1,0.8,0.2,1.2,0.3c0.3,0.1,0.6,0.2,0.8,0.4c0.2,0.1,0.4,0.3,0.5,0.5
			c0.1,0.2,0.2,0.5,0.2,0.7c0,0.6-0.2,1.1-0.7,1.5C82.9,77,82.2,77.1,81.4,77.1z"/>
		<path class="st6" d="M90.9,77l-2.6-3.6l-1.5,1.4V77h-0.9v-9.7h0.9v6.6l3.9-3.8h1l-2.8,2.8l3,4.1H90.9z"/>
		<path class="st6" d="M96.4,77.1c-0.5,0-1-0.1-1.4-0.3c-0.4-0.2-0.8-0.5-1.1-0.8c-0.3-0.3-0.6-0.7-0.7-1.2
			c-0.2-0.4-0.3-0.9-0.3-1.4c0-0.5,0.1-1,0.3-1.4c0.2-0.4,0.4-0.8,0.7-1.1c0.3-0.3,0.7-0.6,1.1-0.8c0.4-0.2,0.9-0.3,1.4-0.3
			s1,0.1,1.4,0.3c0.4,0.2,0.8,0.5,1.1,0.8c0.3,0.3,0.5,0.7,0.7,1.1c0.2,0.4,0.3,0.9,0.3,1.4c0,0.1,0,0.1,0,0.2c0,0.1,0,0.1,0,0.1
			h-5.9c0,0.4,0.1,0.7,0.3,1c0.1,0.3,0.3,0.6,0.6,0.8c0.2,0.2,0.5,0.4,0.8,0.5c0.3,0.1,0.6,0.2,1,0.2c0.2,0,0.5,0,0.7-0.1
			c0.2-0.1,0.4-0.1,0.6-0.3c0.2-0.1,0.4-0.2,0.5-0.4c0.1-0.2,0.3-0.3,0.3-0.5l0.8,0.2c-0.1,0.3-0.3,0.5-0.5,0.7
			c-0.2,0.2-0.4,0.4-0.7,0.5c-0.3,0.2-0.5,0.3-0.9,0.4C97.1,77.1,96.7,77.1,96.4,77.1z M99,73.2c0-0.4-0.1-0.7-0.3-1
			c-0.1-0.3-0.3-0.6-0.6-0.8c-0.2-0.2-0.5-0.4-0.8-0.5c-0.3-0.1-0.6-0.2-1-0.2c-0.3,0-0.7,0.1-1,0.2c-0.3,0.1-0.6,0.3-0.8,0.5
			c-0.2,0.2-0.4,0.5-0.5,0.8c-0.1,0.3-0.2,0.7-0.2,1H99z"/>
		<path class="st6" d="M105.1,70.9c-0.6,0-1.1,0.2-1.6,0.5c-0.5,0.3-0.8,0.8-1,1.3V77h-0.9v-7h0.9v1.7c0.2-0.5,0.6-0.9,0.9-1.2
			c0.4-0.3,0.8-0.5,1.3-0.5c0.1,0,0.2,0,0.2,0c0.1,0,0.1,0,0.2,0V70.9z"/>
		<path class="st6" d="M109.8,73.5c0-0.5,0.1-1,0.3-1.4c0.2-0.4,0.4-0.8,0.7-1.1c0.3-0.3,0.7-0.6,1.1-0.8c0.4-0.2,0.9-0.3,1.4-0.3
			c0.7,0,1.2,0.1,1.7,0.4c0.5,0.3,0.9,0.7,1.1,1.2l-0.9,0.3c-0.2-0.4-0.5-0.6-0.8-0.8c-0.3-0.2-0.7-0.3-1.2-0.3
			c-0.4,0-0.7,0.1-1,0.2c-0.3,0.1-0.6,0.3-0.8,0.6c-0.2,0.2-0.4,0.5-0.5,0.9c-0.1,0.3-0.2,0.7-0.2,1.1c0,0.4,0.1,0.8,0.2,1.1
			c0.1,0.3,0.3,0.6,0.5,0.9c0.2,0.3,0.5,0.5,0.8,0.6c0.3,0.1,0.6,0.2,1,0.2c0.2,0,0.4,0,0.7-0.1s0.4-0.1,0.6-0.3
			c0.2-0.1,0.3-0.2,0.5-0.4c0.1-0.1,0.2-0.3,0.3-0.5l0.9,0.3c-0.1,0.2-0.2,0.5-0.4,0.7s-0.4,0.4-0.7,0.5c-0.3,0.2-0.5,0.3-0.8,0.4
			c-0.3,0.1-0.6,0.1-1,0.1c-0.5,0-1-0.1-1.4-0.3c-0.4-0.2-0.8-0.5-1.1-0.8c-0.3-0.3-0.6-0.7-0.7-1.2C109.9,74.5,109.8,74,109.8,73.5
			z"/>
		<path class="st6" d="M120.9,77.1c-0.5,0-1-0.1-1.4-0.3c-0.4-0.2-0.8-0.5-1.1-0.8c-0.3-0.3-0.5-0.7-0.7-1.1
			c-0.2-0.4-0.3-0.9-0.3-1.4c0-0.5,0.1-1,0.3-1.4c0.2-0.4,0.4-0.8,0.7-1.1c0.3-0.3,0.7-0.6,1.1-0.8c0.4-0.2,0.9-0.3,1.4-0.3
			c0.5,0,1,0.1,1.4,0.3c0.4,0.2,0.8,0.5,1.1,0.8c0.3,0.3,0.5,0.7,0.7,1.1c0.2,0.4,0.3,0.9,0.3,1.4c0,0.5-0.1,0.9-0.3,1.4
			c-0.2,0.4-0.4,0.8-0.7,1.1c-0.3,0.3-0.7,0.6-1.1,0.8C121.9,77,121.4,77.1,120.9,77.1z M118.4,73.6c0,0.4,0.1,0.8,0.2,1.1
			c0.1,0.3,0.3,0.6,0.5,0.9c0.2,0.3,0.5,0.5,0.8,0.6c0.3,0.1,0.6,0.2,1,0.2c0.3,0,0.7-0.1,1-0.2c0.3-0.1,0.6-0.3,0.8-0.6
			c0.2-0.3,0.4-0.5,0.5-0.9c0.1-0.3,0.2-0.7,0.2-1.1c0-0.4-0.1-0.7-0.2-1.1c-0.1-0.3-0.3-0.6-0.5-0.9c-0.2-0.3-0.5-0.5-0.8-0.6
			c-0.3-0.1-0.6-0.2-1-0.2s-0.7,0.1-1,0.2c-0.3,0.1-0.6,0.3-0.8,0.6c-0.2,0.3-0.4,0.6-0.5,0.9C118.4,72.8,118.4,73.2,118.4,73.6z"/>
		<path class="st6" d="M136.6,77h-0.9v-3.9c0-0.8-0.1-1.4-0.4-1.8c-0.3-0.4-0.6-0.6-1.2-0.6c-0.3,0-0.5,0-0.8,0.1
			c-0.2,0.1-0.5,0.2-0.7,0.4c-0.2,0.2-0.4,0.4-0.5,0.6c-0.2,0.2-0.3,0.5-0.3,0.8V77H131v-3.9c0-0.8-0.1-1.4-0.4-1.8
			c-0.2-0.4-0.6-0.6-1.1-0.6c-0.5,0-1,0.2-1.4,0.5c-0.4,0.4-0.7,0.8-0.9,1.4V77h-0.9v-7h0.8v1.6c0.3-0.5,0.7-1,1.1-1.2
			c0.5-0.3,1-0.4,1.5-0.4c0.6,0,1.1,0.2,1.4,0.5c0.4,0.3,0.6,0.8,0.6,1.3c0.6-1.2,1.5-1.8,2.7-1.8c0.4,0,0.7,0.1,1,0.2
			c0.3,0.1,0.5,0.3,0.7,0.6c0.2,0.3,0.3,0.6,0.4,0.9c0.1,0.4,0.1,0.8,0.1,1.2V77z"/>
		<path class="st6" d="M142.4,77.1c-0.6,0-1.1-0.1-1.6-0.4c-0.5-0.3-0.8-0.7-1.1-1.1v4.3h-0.9v-9.8h0.8v1.3c0.3-0.4,0.7-0.8,1.1-1.1
			c0.5-0.3,0.9-0.4,1.5-0.4c0.5,0,0.9,0.1,1.3,0.3c0.4,0.2,0.8,0.5,1,0.8c0.3,0.3,0.5,0.7,0.7,1.2c0.2,0.4,0.2,0.9,0.2,1.3
			c0,0.5-0.1,1-0.2,1.4c-0.2,0.4-0.4,0.8-0.6,1.1c-0.3,0.3-0.6,0.6-1,0.8C143.3,77,142.9,77.1,142.4,77.1z M142.2,76.3
			c0.4,0,0.7-0.1,1-0.2c0.3-0.2,0.6-0.4,0.8-0.6c0.2-0.3,0.4-0.6,0.5-0.9c0.1-0.3,0.2-0.7,0.2-1c0-0.4-0.1-0.7-0.2-1.1
			c-0.1-0.3-0.3-0.6-0.5-0.9c-0.2-0.3-0.5-0.5-0.8-0.6c-0.3-0.2-0.7-0.2-1-0.2c-0.2,0-0.5,0-0.7,0.1c-0.2,0.1-0.5,0.2-0.7,0.4
			c-0.2,0.2-0.4,0.3-0.6,0.5c-0.2,0.2-0.3,0.4-0.3,0.7v2.1c0.1,0.2,0.2,0.5,0.4,0.7c0.2,0.2,0.4,0.4,0.6,0.6
			c0.2,0.2,0.4,0.3,0.7,0.4C141.7,76.3,141.9,76.3,142.2,76.3z"/>
		<path class="st6" d="M149.3,77.1c-0.4,0-0.7-0.1-1-0.2s-0.5-0.3-0.8-0.5c-0.2-0.2-0.4-0.4-0.5-0.7c-0.1-0.3-0.2-0.5-0.2-0.8
			c0-0.3,0.1-0.6,0.2-0.9s0.3-0.5,0.6-0.7c0.3-0.2,0.6-0.3,0.9-0.4c0.4-0.1,0.8-0.2,1.2-0.2c0.3,0,0.7,0,1.1,0.1
			c0.4,0.1,0.7,0.2,1,0.3v-0.6c0-0.6-0.2-1.1-0.5-1.5c-0.4-0.4-0.8-0.5-1.4-0.5c-0.4,0-0.7,0.1-1.1,0.2c-0.4,0.1-0.7,0.3-1.1,0.6
			l-0.3-0.6c0.5-0.3,0.9-0.5,1.3-0.7c0.4-0.2,0.9-0.2,1.3-0.2c0.8,0,1.5,0.2,2,0.7c0.5,0.5,0.7,1.2,0.7,2v3.1c0,0.2,0.1,0.4,0.3,0.4
			V77c-0.1,0-0.1,0-0.2,0c-0.1,0-0.1,0-0.2,0c-0.2,0-0.3-0.1-0.5-0.2c-0.1-0.1-0.2-0.3-0.2-0.5l0-0.5c-0.3,0.4-0.7,0.7-1.2,1
			C150.3,77,149.8,77.1,149.3,77.1z M149.6,76.4c0.4,0,0.8-0.1,1.2-0.3c0.4-0.2,0.7-0.4,0.9-0.7c0.1-0.1,0.1-0.2,0.2-0.3
			c0-0.1,0.1-0.2,0.1-0.3v-1.1c-0.3-0.1-0.6-0.2-0.9-0.3c-0.3-0.1-0.7-0.1-1-0.1c-0.7,0-1.2,0.1-1.6,0.4c-0.4,0.3-0.6,0.6-0.6,1.1
			c0,0.2,0,0.4,0.1,0.5c0.1,0.2,0.2,0.3,0.3,0.5c0.1,0.1,0.3,0.3,0.5,0.3C149,76.4,149.3,76.4,149.6,76.4z"/>
		<path class="st6" d="M161.1,77h-0.9v-3.9c0-0.8-0.1-1.4-0.4-1.8c-0.2-0.4-0.6-0.6-1.1-0.6c-0.3,0-0.5,0-0.8,0.1
			c-0.3,0.1-0.5,0.2-0.7,0.4c-0.2,0.2-0.4,0.4-0.6,0.6c-0.2,0.2-0.3,0.5-0.4,0.8V77h-0.9v-7h0.8v1.6c0.1-0.2,0.3-0.5,0.5-0.7
			c0.2-0.2,0.4-0.4,0.7-0.5c0.3-0.2,0.5-0.3,0.8-0.3c0.3-0.1,0.6-0.1,0.9-0.1c0.4,0,0.7,0.1,1,0.2c0.3,0.1,0.5,0.3,0.6,0.6
			s0.3,0.6,0.3,0.9c0.1,0.4,0.1,0.8,0.1,1.2V77z"/>
		<path class="st6" d="M163.6,79.2c0,0,0.1,0,0.1,0c0,0,0.1,0,0.1,0c0.1,0,0.2,0,0.3,0c0.1,0,0.2,0,0.2-0.1s0.1-0.1,0.1-0.1
			c0-0.1,0.1-0.2,0.2-0.3c0.1-0.1,0.2-0.4,0.3-0.6c0.1-0.3,0.3-0.6,0.4-1.1l-3-7h0.9l2.6,6.1l2.4-6.1h0.9l-3.6,9
			c-0.1,0.3-0.3,0.6-0.5,0.7c-0.2,0.2-0.5,0.2-1,0.2c-0.2,0-0.3,0-0.5,0V79.2z"/>
	</g>
</g>
</svg>
